# xmcd CD database file
#
# Track frame offsets:
#	187
#	27930
#	52517
#	76112
#	104122
#	125847
#	142727
#	161267
#
# Disc length: 2388 seconds
#
# Revision: 1
# Processed by: cddbd v1.5.1PL2 Copyright (c) Steve Scherf et al.
# Submitted via: CDex 1.51
#
DISCID=59095208
DTITLE=Curtis Mayfield - There's No Place Like America Today
DYEAR=1998
DGENRE=Soul
TTITLE0=Billy Jack
TTITLE1=When Seasons Change
TTITLE2=So In Love
TTITLE3=Jesus
TTITLE4=Blue Monday People
TTITLE5=Hard Times
TTITLE6=Love To The People
TTITLE7=Hard Times(Long Version)
EXTD=YEAR: 1998
EXTT0=
EXTT1=
EXTT2=
EXTT3=
EXTT4=
EXTT5=
EXTT6=
EXTT7=
PLAYORDER=
